<?xml version="1.0" standalone="no"?>
<!DOCTYPE svg PUBLIC "-//W3C//DTD SVG 20010904//EN"
 "http://www.w3.org/TR/2001/REC-SVG-20010904/DTD/svg10.dtd">
<svg version="1.0" xmlns="http://www.w3.org/2000/svg"
 width="517.000000pt" height="517.000000pt" viewBox="0 0 517.000000 517.000000"
 preserveAspectRatio="xMidYMid meet">
<metadata>
Created by potrace 1.14, written by Peter Selinger 2001-2017
</metadata>
<g transform="translate(0.000000,517.000000) scale(0.100000,-0.100000)"
fill="#000000" stroke="none">
<path d="M100 5122 c265 -352 457 -698 603 -1092 60 -162 140 -441 161 -563 3
-15 7 -35 10 -45 12 -37 56 -353 63 -452 17 -228 8 -643 -18 -840 -5 -41 -12
-93 -15 -115 -11 -85 -47 -255 -79 -381 -145 -561 -396 -1069 -755 -1526 l-64
-82 39 23 c328 194 685 360 989 457 l88 29 29 56 c143 284 314 798 373 1124
13 67 35 203 41 241 17 124 23 173 31 279 3 49 8 105 10 125 1 19 3 95 4 168
0 73 4 131 8 128 4 -2 28 -7 52 -10 25 -4 61 -9 80 -11 96 -14 160 -17 505
-25 12 0 16 -3 9 -8 -8 -5 -11 -40 -9 -107 5 -145 16 -351 20 -377 2 -13 6
-54 10 -93 5 -65 21 -197 30 -255 35 -229 72 -416 120 -605 37 -149 103 -376
114 -394 5 -8 52 -13 142 -16 126 -4 262 -12 354 -21 69 -6 159 -16 175 -19 8
-1 40 -6 70 -10 30 -4 62 -9 70 -10 8 -1 35 -6 60 -10 270 -44 636 -144 925
-253 244 -91 538 -236 785 -385 l35 -22 -20 26 c-11 14 -59 77 -106 140 -369
488 -615 1036 -738 1639 -28 142 -33 168 -46 280 -4 30 -9 66 -11 80 -25 159
-25 736 0 890 3 14 10 68 16 120 7 52 18 125 26 162 7 37 16 82 19 100 29 169
138 523 225 728 125 299 305 619 480 850 31 41 59 80 63 87 4 6 -46 -18 -110
-55 -240 -134 -567 -277 -839 -366 l-110 -36 -24 -53 c-207 -466 -340 -931
-394 -1382 -26 -209 -36 -365 -38 -551 l-1 -121 -41 8 c-117 21 -274 32 -456
33 l-145 1 -1 100 c0 120 -13 430 -19 448 -2 6 -6 46 -9 87 -4 41 -8 86 -10
100 -2 14 -7 52 -11 85 -4 33 -15 110 -25 170 -10 61 -21 130 -25 155 -4 24
-8 47 -10 50 -2 3 -6 23 -9 45 -8 47 -91 388 -110 448 -7 23 -21 70 -31 105
-17 59 -20 62 -49 62 -120 2 -302 10 -365 15 -42 4 -98 8 -126 11 -666 55
-1405 295 -2005 648 l-35 21 25 -33z m1425 -1191 c61 -13 280 -47 355 -56 30
-3 93 -10 140 -15 47 -5 139 -12 205 -16 148 -7 148 -7 141 -41 -3 -16 -9 -45
-12 -67 -3 -21 -7 -46 -9 -55 -1 -9 -6 -36 -10 -61 -4 -25 -9 -54 -11 -65 -8
-41 -33 -242 -36 -284 l-2 -43 -120 7 c-66 4 -127 8 -135 10 -9 1 -52 6 -96 9
-81 7 -97 9 -170 21 -38 6 -58 8 -150 21 -22 2 -43 8 -47 12 -3 4 -9 32 -13
62 -13 107 -78 407 -121 558 -6 20 -4 22 17 18 13 -3 47 -10 74 -15z m1330
-1320 c-6 -11 -545 -14 -545 -4 0 5 124 9 275 10 151 0 273 -3 270 -6z m285
-636 c14 -2 54 -6 90 -10 65 -6 255 -30 339 -43 40 -6 45 -10 48 -37 13 -107
105 -517 133 -589 11 -30 3 -32 -65 -16 -22 5 -56 11 -75 15 -19 3 -57 10 -85
15 -27 5 -88 14 -135 20 -47 6 -96 13 -110 15 -100 15 -334 34 -429 35 l-63 0
5 28 c33 186 66 386 71 422 3 25 8 71 12 103 l7 59 116 -7 c64 -3 127 -8 141
-10z"/>
</g>
</svg>
